<svg xmlns="http://www.w3.org/2000/svg" xmlns:xlink="http://www.w3.org/1999/xlink" width="420" zoomAndPan="magnify" viewBox="0 0 315 112.499997" height="150" preserveAspectRatio="xMidYMid meet" version="1.0"><defs><g/><clipPath id="id1"><path d="M 0.695312 0 L 314.300781 0 L 314.300781 112.003906 L 0.695312 112.003906 Z M 0.695312 0 " clip-rule="nonzero"/></clipPath><clipPath id="id2"><path d="M 269 26 L 305 26 L 305 69 L 269 69 Z M 269 26 " clip-rule="nonzero"/></clipPath><clipPath id="id3"><path d="M 296.144531 24.539062 L 314.265625 38.941406 L 282.667969 78.6875 L 264.550781 64.285156 Z M 296.144531 24.539062 " clip-rule="nonzero"/></clipPath><clipPath id="id4"><path d="M 314.300781 38.96875 L 296.179688 24.566406 L 264.585938 64.3125 L 282.703125 78.714844 Z M 314.300781 38.96875 " clip-rule="nonzero"/></clipPath><clipPath id="id5"><path d="M 314.300781 38.96875 L 296.179688 24.566406 L 264.585938 64.3125 L 282.703125 78.714844 Z M 314.300781 38.96875 " clip-rule="nonzero"/></clipPath></defs><g clip-path="url(#id1)"><path fill="#ffffff" d="M 0.695312 0 L 314.304688 0 L 314.304688 119.46875 L 0.695312 119.46875 Z M 0.695312 0 " fill-opacity="1" fill-rule="nonzero"/><path fill="#ffffff" d="M 0.695312 0 L 314.304688 0 L 314.304688 112.003906 L 0.695312 112.003906 Z M 0.695312 0 " fill-opacity="1" fill-rule="nonzero"/><path fill="#ffffff" d="M 0.695312 0 L 314.304688 0 L 314.304688 112.003906 L 0.695312 112.003906 Z M 0.695312 0 " fill-opacity="1" fill-rule="nonzero"/></g><g fill="#000000" fill-opacity="1"><g transform="translate(8.650494, 76.820103)"><g><path d="M 5.214844 -20.757812 C 6.765625 -28.195312 8.726562 -35.527344 11.566406 -42.546875 C 12.804688 -45.542969 14.046875 -48.539062 15.335938 -51.480469 C 15.644531 -52.203125 15.4375 -52.460938 14.820312 -52.667969 C 13.890625 -53.03125 13.527344 -52.410156 13.167969 -51.792969 C 11.875 -49.417969 10.792969 -46.9375 9.707031 -44.460938 C 6.195312 -36.25 3.976562 -27.675781 2.273438 -18.949219 C 1.085938 -13.011719 0.414062 -6.972656 -0.363281 -0.929688 C -0.414062 -0.363281 -0.414062 0.101562 0.15625 0.414062 C 1.1875 0.980469 1.808594 0.722656 2.015625 -0.414062 C 2.941406 -5.628906 4.390625 -10.6875 6.144531 -15.699219 C 8.210938 -21.53125 10.894531 -27.109375 13.839844 -32.582031 C 18.691406 -41.566406 24.269531 -50.140625 31.292969 -57.625 C 35.421875 -62.066406 39.914062 -66.09375 45.386719 -68.933594 C 47.503906 -70.070312 49.675781 -70.949219 52.101562 -71.207031 C 54.632812 -71.414062 55.820312 -70.585938 56.492188 -68.160156 C 57.007812 -66.25 56.902344 -64.289062 56.644531 -62.324219 C 55.871094 -56.59375 53.855469 -51.171875 51.585938 -45.851562 C 48.125 -37.695312 43.996094 -29.847656 40.171875 -21.84375 C 37.332031 -15.851562 34.597656 -9.8125 32.945312 -3.355469 C 32.53125 -1.808594 32.324219 -0.257812 32.117188 1.34375 C 32.015625 1.859375 32.273438 2.273438 32.789062 2.480469 C 33.304688 2.683594 33.71875 2.738281 34.339844 2.375 C 35.113281 1.910156 35.527344 1.136719 36.09375 0.464844 C 38.46875 -2.324219 41.207031 -4.75 44.253906 -6.867188 C 46.421875 -8.363281 48.640625 -9.863281 51.171875 -10.84375 C 52.515625 -11.308594 52.773438 -11.207031 53.03125 -9.757812 C 53.289062 -8.363281 53.339844 -6.972656 53.445312 -5.578125 C 53.753906 -1.34375 56.800781 1.1875 61.035156 0.671875 C 63.304688 0.414062 65.527344 -0.207031 67.695312 -1.03125 C 72.757812 -2.941406 77.453125 -5.578125 82.207031 -8.054688 C 82.671875 -8.3125 83.082031 -8.625 83.546875 -8.882812 C 83.960938 -9.140625 83.804688 -9.347656 83.445312 -9.449219 C 83.136719 -9.605469 82.773438 -9.554688 82.464844 -9.449219 C 81.742188 -9.140625 80.964844 -8.882812 80.296875 -8.519531 C 77.144531 -6.765625 73.996094 -5.058594 70.691406 -3.5625 C 67.488281 -2.066406 64.132812 -0.878906 60.570312 -0.464844 C 58.660156 -0.257812 57.679688 -0.878906 57.007812 -2.683594 C 56.902344 -3.097656 56.75 -3.5625 56.695312 -4.027344 C 56.492188 -5.679688 56.386719 -7.332031 56.179688 -8.984375 C 55.921875 -11.050781 54.839844 -12.03125 52.824219 -12.394531 C 51.121094 -12.652344 49.621094 -12.1875 48.175781 -11.410156 C 44.199219 -9.292969 40.484375 -6.917969 37.074219 -3.925781 C 36.867188 -3.71875 36.714844 -3.460938 36.25 -3.40625 C 37.125 -6.246094 38.054688 -8.933594 39.191406 -11.617188 C 42.238281 -19.15625 45.90625 -26.386719 49.519531 -33.667969 C 52.566406 -39.8125 55.507812 -46.007812 57.625 -52.566406 C 58.917969 -56.492188 59.796875 -60.519531 59.796875 -64.648438 C 59.847656 -69.605469 56.695312 -72.652344 51.738281 -72.550781 C 50.863281 -72.550781 49.933594 -72.445312 49.105469 -72.238281 C 46.421875 -71.570312 43.941406 -70.378906 41.621094 -68.933594 C 36.09375 -65.578125 31.5 -61.191406 27.367188 -56.335938 C 18.691406 -46.164062 12.082031 -34.699219 6.660156 -22.566406 C 6.042969 -21.121094 5.421875 -19.671875 4.75 -18.074219 C 4.699219 -18.28125 4.699219 -18.382812 4.699219 -18.433594 C 4.855469 -19.207031 5.007812 -19.984375 5.214844 -20.757812 Z M 5.214844 -20.757812 "/></g></g></g><g fill="#000000" fill-opacity="1"><g transform="translate(90.649689, 76.820103)"><g><path d="M 3.613281 -1.652344 C 3.71875 -0.566406 3.871094 0.515625 4.390625 1.496094 C 6.144531 4.800781 9.65625 5.523438 12.597656 4.285156 C 18.539062 1.753906 29.691406 -8.003906 36.09375 -8.777344 C 36.042969 -8.984375 36.042969 -9.089844 35.992188 -9.140625 C 34.234375 -11.101562 18.382812 -0.207031 13.167969 2.324219 C 11.824219 2.996094 10.480469 3.5625 8.933594 3.5625 C 8.160156 3.511719 7.640625 3.203125 7.332031 2.480469 C 7.023438 1.753906 6.867188 0.980469 6.867188 0.15625 C 6.816406 -1.703125 7.175781 -3.460938 7.902344 -5.214844 C 8.46875 -6.660156 9.347656 -7.953125 10.121094 -9.292969 C 10.6875 -10.378906 10.585938 -10.742188 9.5 -11.257812 C 9.191406 -11.410156 8.882812 -11.617188 8.570312 -11.515625 C 8.003906 -11.308594 7.695312 -11.617188 7.28125 -11.875 C 5.730469 -12.753906 4.183594 -12.960938 2.632812 -11.980469 C -1.085938 -9.65625 -2.789062 -6.144531 -2.683594 -1.859375 C -2.683594 -0.414062 -1.03125 0.414062 0.308594 -0.207031 C 0.828125 -0.464844 1.289062 -0.828125 1.652344 -1.238281 C 2.21875 -1.753906 2.789062 -2.324219 3.40625 -2.941406 C 3.613281 -2.425781 3.5625 -2.015625 3.613281 -1.652344 Z M 0.722656 -2.273438 C 0.363281 -1.960938 -0.0507812 -1.703125 -0.621094 -1.289062 C -0.621094 -2.425781 -0.414062 -3.253906 -0.101562 -3.976562 C 0.828125 -6.351562 2.167969 -8.363281 4.132812 -10.015625 C 4.492188 -10.328125 4.957031 -10.535156 5.371094 -10.792969 C 5.628906 -10.945312 5.988281 -11 6.195312 -10.636719 C 6.402344 -10.328125 6.609375 -10.070312 6.351562 -9.65625 C 4.699219 -7.023438 3.097656 -4.335938 0.722656 -2.273438 Z M 0.722656 -2.273438 "/></g></g></g><g fill="#000000" fill-opacity="1"><g transform="translate(125.504517, 76.820103)"><g><path d="M 26.851562 -8.210938 C 26.386719 -8.726562 25.972656 -8.570312 25.558594 -8.417969 C 24.890625 -8.105469 24.21875 -7.796875 23.597656 -7.382812 C 19.621094 -4.800781 15.699219 -2.167969 11.875 0.722656 C 9.191406 2.789062 6.558594 5.007812 3.40625 6.453125 C 1.1875 7.4375 -0.464844 6.453125 -0.722656 4.027344 C -0.773438 3.511719 -0.773438 2.996094 -0.722656 2.480469 C -0.308594 -1.238281 0.464844 -4.90625 1.859375 -8.3125 C 7.4375 -21.84375 14.457031 -34.492188 22.566406 -46.628906 C 22.976562 -47.195312 23.390625 -47.246094 23.960938 -47.144531 C 26.800781 -46.578125 29.585938 -46.007812 32.375 -45.492188 C 40.792969 -43.996094 49.210938 -42.808594 57.730469 -44.097656 C 60.414062 -44.460938 63.253906 -44.71875 64.957031 -47.351562 C 65.0625 -47.609375 65.527344 -47.710938 65.269531 -48.074219 C 65.0625 -48.332031 64.699219 -48.28125 64.441406 -48.175781 C 63.976562 -48.023438 63.566406 -47.765625 63.304688 -47.351562 C 63.046875 -46.9375 62.738281 -46.628906 62.324219 -46.472656 C 61.191406 -46.164062 60.15625 -45.699219 59.019531 -45.542969 C 54.734375 -44.820312 50.449219 -44.613281 46.164062 -44.769531 C 38.777344 -45.027344 31.652344 -46.578125 24.476562 -47.96875 C 23.703125 -48.175781 23.804688 -48.433594 24.164062 -48.953125 C 25.25 -50.5 26.386719 -52.101562 27.472656 -53.703125 C 27.730469 -54.113281 28.195312 -54.578125 27.78125 -55.097656 C 27.417969 -55.5625 26.800781 -55.714844 26.179688 -55.664062 C 25.558594 -55.5625 25.199219 -55.148438 24.835938 -54.734375 C 23.496094 -53.082031 22.253906 -51.328125 21.121094 -49.570312 C 20.757812 -49.003906 20.398438 -48.898438 19.777344 -49.003906 C 17.296875 -49.519531 14.871094 -49.984375 12.445312 -50.398438 C 5.371094 -51.585938 -1.703125 -52 -8.828125 -51.070312 C -12.082031 -50.65625 -15.285156 -49.933594 -18.226562 -48.433594 C -19.261719 -47.867188 -20.242188 -47.300781 -20.757812 -46.164062 C -21.171875 -45.441406 -20.808594 -44.820312 -19.878906 -44.511719 C -19.363281 -44.355469 -18.640625 -43.996094 -18.847656 -45.183594 C -18.898438 -45.335938 -18.589844 -45.542969 -18.382812 -45.75 C -17.402344 -46.679688 -16.214844 -47.300781 -14.921875 -47.710938 C -13.167969 -48.332031 -11.308594 -48.847656 -9.449219 -49.15625 C 0.15625 -50.65625 9.707031 -49.828125 19.207031 -48.023438 C 20.191406 -47.867188 19.671875 -47.453125 19.46875 -47.039062 C 17.917969 -44.664062 16.421875 -42.289062 14.921875 -39.914062 C 9.707031 -31.652344 4.542969 -23.289062 0.828125 -14.199219 C -1.289062 -9.089844 -2.632812 -3.71875 -2.839844 1.859375 C -2.996094 6.453125 0.621094 8.828125 4.800781 6.816406 C 6.246094 6.09375 7.640625 5.214844 8.984375 4.285156 C 14.921875 0.15625 20.550781 -4.542969 26.851562 -8.210938 Z M 26.851562 -8.210938 "/></g></g></g><g fill="#000000" fill-opacity="1"><g transform="translate(151.013087, 76.820103)"><g><path d="M 23.238281 -8.882812 C 20.859375 -7.695312 18.640625 -6.300781 16.628906 -4.542969 C 13.941406 -2.273438 11.359375 0.207031 8.777344 2.632812 C 6.765625 4.59375 4.75 6.558594 2.375 8.105469 C 1.445312 8.726562 0.414062 9.191406 -0.671875 9.449219 C -1.652344 9.605469 -1.859375 9.5 -2.273438 8.625 C -2.632812 7.796875 -2.683594 6.917969 -2.683594 6.042969 C -2.789062 3.5625 -2.066406 1.238281 -1.34375 -1.03125 C -0.0507812 -4.957031 1.601562 -8.675781 3.460938 -12.289062 C 4.027344 -13.425781 4.648438 -14.511719 5.214844 -15.644531 L 5.265625 -15.644531 C 18.742188 -30.722656 32.167969 -52.773438 32.480469 -56.492188 C 32.789062 -57.316406 31.703125 -59.125 30.828125 -58.402344 C 30.414062 -58.039062 29.949219 -57.679688 29.585938 -57.265625 C 27.109375 -54.527344 24.683594 -51.738281 22.359375 -48.847656 C 19.621094 -45.492188 17.144531 -41.929688 14.769531 -38.261719 C 12.394531 -34.492188 10.070312 -30.777344 7.847656 -26.902344 C 5.320312 -22.566406 2.941406 -18.175781 0.722656 -13.683594 C -0.773438 -10.792969 -2.167969 -7.847656 -3.253906 -4.75 C -4.285156 -1.753906 -5.007812 1.238281 -5.007812 4.441406 C -5.007812 5.679688 -4.75 6.816406 -4.285156 7.902344 C -3.460938 9.964844 -1.550781 10.894531 0.621094 10.328125 C 1.03125 10.222656 1.445312 10.015625 1.859375 9.863281 C 3.148438 9.242188 4.234375 8.363281 5.320312 7.488281 C 8.570312 4.855469 11.515625 1.960938 14.511719 -0.929688 C 15.957031 -2.273438 17.402344 -3.71875 18.898438 -5.058594 C 20.65625 -6.609375 22.617188 -7.847656 24.941406 -8.882812 C 24.21875 -9.347656 23.703125 -9.140625 23.238281 -8.882812 Z M 9.035156 -22.667969 C 12.339844 -28.503906 15.851562 -34.183594 19.570312 -39.8125 C 22.511719 -44.199219 25.871094 -48.332031 29.125 -52.515625 C 29.742188 -53.289062 30.363281 -54.0625 30.980469 -54.839844 C 29.792969 -52.257812 27.367188 -47.96875 23.597656 -42.03125 C 18.484375 -33.976562 12.753906 -26.128906 7.4375 -19.777344 C 7.953125 -20.757812 8.519531 -21.738281 9.035156 -22.667969 Z M 9.035156 -22.667969 "/></g></g></g><g fill="#000000" fill-opacity="1"><g transform="translate(173.939813, 76.820103)"><g><path d="M 3.613281 -1.652344 C 3.71875 -0.566406 3.871094 0.515625 4.390625 1.496094 C 6.144531 4.800781 9.65625 5.523438 12.597656 4.285156 C 18.539062 1.753906 29.691406 -8.003906 36.09375 -8.777344 C 36.042969 -8.984375 36.042969 -9.089844 35.992188 -9.140625 C 34.234375 -11.101562 18.382812 -0.207031 13.167969 2.324219 C 11.824219 2.996094 10.480469 3.5625 8.933594 3.5625 C 8.160156 3.511719 7.640625 3.203125 7.332031 2.480469 C 7.023438 1.753906 6.867188 0.980469 6.867188 0.15625 C 6.816406 -1.703125 7.175781 -3.460938 7.902344 -5.214844 C 8.46875 -6.660156 9.347656 -7.953125 10.121094 -9.292969 C 10.6875 -10.378906 10.585938 -10.742188 9.5 -11.257812 C 9.191406 -11.410156 8.882812 -11.617188 8.570312 -11.515625 C 8.003906 -11.308594 7.695312 -11.617188 7.28125 -11.875 C 5.730469 -12.753906 4.183594 -12.960938 2.632812 -11.980469 C -1.085938 -9.65625 -2.789062 -6.144531 -2.683594 -1.859375 C -2.683594 -0.414062 -1.03125 0.414062 0.308594 -0.207031 C 0.828125 -0.464844 1.289062 -0.828125 1.652344 -1.238281 C 2.21875 -1.753906 2.789062 -2.324219 3.40625 -2.941406 C 3.613281 -2.425781 3.5625 -2.015625 3.613281 -1.652344 Z M 0.722656 -2.273438 C 0.363281 -1.960938 -0.0507812 -1.703125 -0.621094 -1.289062 C -0.621094 -2.425781 -0.414062 -3.253906 -0.101562 -3.976562 C 0.828125 -6.351562 2.167969 -8.363281 4.132812 -10.015625 C 4.492188 -10.328125 4.957031 -10.535156 5.371094 -10.792969 C 5.628906 -10.945312 5.988281 -11 6.195312 -10.636719 C 6.402344 -10.328125 6.609375 -10.070312 6.351562 -9.65625 C 4.699219 -7.023438 3.097656 -4.335938 0.722656 -2.273438 Z M 0.722656 -2.273438 "/></g></g></g><g fill="#000000" fill-opacity="1"><g transform="translate(208.794641, 76.820103)"><g><path d="M 33.304688 -9.757812 C 33.097656 -9.757812 32.890625 -9.65625 32.738281 -9.605469 C 30.722656 -8.625 28.710938 -7.589844 26.800781 -6.453125 C 24.113281 -4.800781 21.429688 -3.148438 18.539062 -1.753906 C 17.089844 -1.085938 15.59375 -0.308594 13.992188 -0.0507812 C 12.289062 0.207031 11.929688 -0.15625 12.082031 -1.808594 C 12.082031 -1.910156 12.082031 -2.066406 12.082031 -2.167969 C 12.289062 -3.460938 12.703125 -4.648438 13.269531 -5.785156 C 14.046875 -7.4375 14.871094 -9.035156 15.699219 -10.636719 C 16.109375 -11.464844 16.421875 -12.289062 16.679688 -13.167969 C 16.988281 -14.355469 16.523438 -15.285156 15.644531 -16.058594 C 14.769531 -16.78125 13.941406 -16.472656 13.117188 -16.007812 C 12.1875 -15.492188 11.410156 -14.820312 10.636719 -14.097656 C 7.847656 -11.617188 5.214844 -8.984375 2.632812 -6.351562 C 2.167969 -5.835938 1.703125 -5.371094 0.878906 -5.164062 C 0.929688 -5.886719 1.1875 -6.453125 1.445312 -7.023438 C 2.117188 -8.519531 2.996094 -9.914062 3.925781 -11.257812 C 4.800781 -12.394531 4.542969 -13.425781 3.40625 -14.148438 C 2.890625 -14.457031 2.480469 -14.457031 2.066406 -14.046875 C -0.101562 -11.929688 -1.445312 -9.449219 -1.34375 -6.300781 C -1.289062 -5.320312 -0.929688 -4.492188 -0.308594 -3.769531 C 0.414062 -2.941406 1.085938 -2.839844 1.960938 -3.511719 C 2.324219 -3.769531 2.683594 -4.027344 2.996094 -4.335938 C 5.523438 -6.867188 7.902344 -9.605469 10.636719 -11.929688 C 11.773438 -12.910156 12.859375 -13.839844 14.5625 -14.40625 C 13.890625 -12.753906 13.011719 -11.464844 12.238281 -10.171875 C 10.792969 -7.695312 10.171875 -5.058594 10.429688 -2.273438 C 10.636719 0.101562 12.445312 2.21875 15.492188 1.136719 C 17.195312 0.515625 18.847656 -0.207031 20.398438 -1.085938 C 23.390625 -2.683594 26.179688 -4.492188 29.070312 -6.195312 C 30.570312 -7.023438 32.015625 -7.847656 33.460938 -8.675781 C 33.667969 -8.828125 34.027344 -8.882812 33.925781 -9.292969 C 33.820312 -9.554688 33.617188 -9.757812 33.304688 -9.757812 Z M 33.304688 -9.757812 "/></g></g></g><g fill="#000000" fill-opacity="1"><g transform="translate(241.325815, 76.820103)"><g><path d="M 4.132812 -12.445312 C 3.460938 -13.011719 2.890625 -13.011719 2.21875 -12.394531 C 1.960938 -12.132812 1.703125 -11.875 1.445312 -11.617188 C -1.703125 -7.382812 -4.183594 -2.890625 -4.699219 2.480469 C -4.90625 3.871094 -4.855469 5.265625 -4.542969 6.660156 C -4.285156 7.746094 -3.820312 8.828125 -3.097656 9.757812 C -1.652344 11.464844 -0.0507812 11.667969 1.808594 10.480469 C 2.117188 10.277344 2.425781 9.964844 2.738281 9.707031 C 5.371094 7.488281 7.695312 4.957031 10.070312 2.480469 C 12.960938 -0.566406 16.109375 -3.148438 19.933594 -5.007812 C 22.101562 -6.042969 24.164062 -7.175781 26.4375 -8.003906 C 26.644531 -8.054688 26.851562 -8.105469 26.800781 -8.363281 C 26.800781 -8.570312 26.59375 -8.675781 26.386719 -8.675781 C 25.972656 -8.726562 25.664062 -8.570312 25.355469 -8.417969 C 24.164062 -7.902344 22.976562 -7.382812 21.84375 -6.816406 C 19.570312 -5.730469 17.195312 -4.75 15.027344 -3.355469 C 11.875 -1.445312 9.191406 1.085938 6.660156 3.769531 C 5.214844 5.214844 3.925781 6.816406 2.21875 7.953125 C 1.238281 8.625 0.308594 9.292969 -0.929688 9.347656 C -1.859375 9.398438 -2.117188 9.191406 -2.324219 8.3125 C -2.582031 7.230469 -2.582031 6.144531 -2.480469 5.058594 C -2.066406 1.03125 -0.515625 -2.632812 1.550781 -6.09375 C 2.480469 -7.640625 3.460938 -9.035156 4.390625 -10.535156 C 4.855469 -11.308594 4.75 -11.929688 4.132812 -12.445312 Z M 6.507812 -14.976562 C 6.972656 -14.820312 7.28125 -15.128906 7.230469 -15.59375 C 7.230469 -16.367188 6.351562 -17.144531 5.472656 -17.246094 C 5.007812 -17.296875 4.75 -16.988281 4.90625 -16.523438 C 5.164062 -15.75 5.785156 -15.234375 6.507812 -14.976562 Z M 6.507812 -14.976562 "/></g></g></g><g fill="#000000" fill-opacity="1"><g transform="translate(111.277254, 103.869706)"><g><path d="M 3.546875 0 L 0.703125 0 L 0.71875 -0.109375 L 0.859375 -0.109375 C 1.054688 -0.109375 1.226562 -0.175781 1.375 -0.3125 C 1.519531 -0.457031 1.59375 -0.632812 1.59375 -0.84375 L 1.59375 -7.34375 C 1.59375 -7.539062 1.519531 -7.707031 1.375 -7.84375 C 1.226562 -7.988281 1.054688 -8.0625 0.859375 -8.0625 L 0.71875 -8.0625 L 0.703125 -8.1875 L 3.03125 -8.1875 C 3.832031 -8.1875 4.453125 -8.007812 4.890625 -7.65625 C 5.335938 -7.300781 5.5625 -6.828125 5.5625 -6.234375 C 5.5625 -5.765625 5.4375 -5.375 5.1875 -5.0625 C 4.9375 -4.757812 4.632812 -4.554688 4.28125 -4.453125 C 4.894531 -4.359375 5.378906 -4.101562 5.734375 -3.6875 C 6.097656 -3.28125 6.28125 -2.757812 6.28125 -2.125 C 6.28125 -1.5 6.039062 -0.988281 5.5625 -0.59375 C 5.082031 -0.195312 4.410156 0 3.546875 0 Z M 2.359375 -0.421875 L 3.5 -0.421875 C 3.507812 -0.421875 3.519531 -0.421875 3.53125 -0.421875 C 4.125 -0.421875 4.582031 -0.582031 4.90625 -0.90625 C 5.238281 -1.226562 5.40625 -1.6875 5.40625 -2.28125 C 5.40625 -2.613281 5.347656 -2.90625 5.234375 -3.15625 C 5.117188 -3.414062 4.972656 -3.617188 4.796875 -3.765625 C 4.347656 -4.140625 3.671875 -4.328125 2.765625 -4.328125 L 2.765625 -4.421875 C 2.765625 -4.421875 2.796875 -4.421875 2.859375 -4.421875 C 2.929688 -4.421875 3.03125 -4.425781 3.15625 -4.4375 C 3.28125 -4.457031 3.421875 -4.488281 3.578125 -4.53125 C 3.734375 -4.570312 3.875 -4.632812 4 -4.71875 C 4.125 -4.800781 4.238281 -4.90625 4.34375 -5.03125 C 4.570312 -5.28125 4.6875 -5.660156 4.6875 -6.171875 C 4.6875 -6.679688 4.539062 -7.082031 4.25 -7.375 C 3.957031 -7.664062 3.535156 -7.8125 2.984375 -7.8125 L 2.359375 -7.8125 Z M 2.359375 -0.421875 "/></g></g></g><g fill="#000000" fill-opacity="1"><g transform="translate(121.628827, 103.869706)"><g><path d="M 6.390625 -0.109375 C 6.597656 -0.109375 6.769531 -0.175781 6.90625 -0.3125 C 7.050781 -0.457031 7.128906 -0.632812 7.140625 -0.84375 L 7.140625 -3.875 L 2.359375 -3.875 L 2.359375 -0.859375 C 2.359375 -0.648438 2.429688 -0.472656 2.578125 -0.328125 C 2.734375 -0.179688 2.910156 -0.109375 3.109375 -0.109375 L 3.265625 -0.109375 L 3.265625 0 L 0.703125 0 L 0.703125 -0.109375 L 0.859375 -0.109375 C 1.054688 -0.109375 1.226562 -0.179688 1.375 -0.328125 C 1.519531 -0.472656 1.59375 -0.648438 1.59375 -0.859375 L 1.59375 -7.34375 C 1.59375 -7.539062 1.519531 -7.707031 1.375 -7.84375 C 1.226562 -7.988281 1.054688 -8.0625 0.859375 -8.0625 L 0.703125 -8.0625 L 0.703125 -8.1875 L 3.265625 -8.1875 L 3.265625 -8.0625 L 3.109375 -8.0625 C 2.910156 -8.0625 2.738281 -7.988281 2.59375 -7.84375 C 2.445312 -7.707031 2.367188 -7.539062 2.359375 -7.34375 L 2.359375 -4.21875 L 7.140625 -4.21875 L 7.140625 -7.34375 C 7.128906 -7.625 7.003906 -7.832031 6.765625 -7.96875 C 6.648438 -8.03125 6.523438 -8.0625 6.390625 -8.0625 L 6.234375 -8.0625 L 6.234375 -8.1875 L 8.796875 -8.1875 L 8.796875 -8.0625 L 8.65625 -8.0625 C 8.445312 -8.0625 8.269531 -7.988281 8.125 -7.84375 C 7.976562 -7.695312 7.90625 -7.523438 7.90625 -7.328125 L 7.90625 -0.859375 C 7.90625 -0.648438 7.976562 -0.472656 8.125 -0.328125 C 8.269531 -0.179688 8.445312 -0.109375 8.65625 -0.109375 L 8.796875 -0.109375 L 8.796875 0 L 6.234375 0 L 6.234375 -0.109375 Z M 6.390625 -0.109375 "/></g></g></g><g fill="#000000" fill-opacity="1"><g transform="translate(134.632193, 103.869706)"><g><path d="M 8.59375 -8.0625 L 8.40625 -8.0625 C 8.238281 -8.0625 8.09375 -8.007812 7.96875 -7.90625 C 7.851562 -7.800781 7.789062 -7.671875 7.78125 -7.515625 L 7.78125 -2.890625 C 7.78125 -1.972656 7.488281 -1.234375 6.90625 -0.671875 C 6.332031 -0.117188 5.566406 0.15625 4.609375 0.15625 C 3.648438 0.15625 2.875 -0.117188 2.28125 -0.671875 C 1.6875 -1.222656 1.390625 -1.957031 1.390625 -2.875 L 1.390625 -7.484375 C 1.390625 -7.710938 1.289062 -7.882812 1.09375 -8 C 1 -8.039062 0.890625 -8.0625 0.765625 -8.0625 L 0.578125 -8.0625 L 0.578125 -8.1875 L 2.953125 -8.1875 L 2.953125 -8.0625 L 2.765625 -8.0625 C 2.597656 -8.0625 2.453125 -8.007812 2.328125 -7.90625 C 2.210938 -7.800781 2.15625 -7.664062 2.15625 -7.5 L 2.15625 -3.03125 C 2.15625 -2.1875 2.378906 -1.503906 2.828125 -0.984375 C 3.285156 -0.460938 3.894531 -0.203125 4.65625 -0.203125 C 5.425781 -0.203125 6.046875 -0.445312 6.515625 -0.9375 C 6.992188 -1.4375 7.234375 -2.085938 7.234375 -2.890625 L 7.234375 -7.5 C 7.222656 -7.664062 7.160156 -7.800781 7.046875 -7.90625 C 6.929688 -8.007812 6.785156 -8.0625 6.609375 -8.0625 L 6.421875 -8.0625 L 6.421875 -8.1875 L 8.59375 -8.1875 Z M 8.59375 -8.0625 "/></g></g></g><g fill="#000000" fill-opacity="1"><g transform="translate(147.308466, 103.869706)"><g><path d="M 10.515625 -0.109375 L 10.703125 -0.109375 L 10.703125 0 L 8.171875 0 L 8.171875 -0.109375 L 8.34375 -0.109375 C 8.476562 -0.109375 8.59375 -0.160156 8.6875 -0.265625 C 8.78125 -0.367188 8.816406 -0.484375 8.796875 -0.609375 L 8.28125 -6.484375 L 5.828125 -1.03125 C 5.609375 -0.550781 5.472656 -0.15625 5.421875 0.15625 L 5.3125 0.15625 L 2.3125 -6.328125 L 1.8125 -0.609375 C 1.789062 -0.484375 1.828125 -0.367188 1.921875 -0.265625 C 2.015625 -0.160156 2.125 -0.109375 2.25 -0.109375 L 2.4375 -0.109375 L 2.4375 0 L 0.171875 0 L 0.171875 -0.109375 L 0.359375 -0.109375 C 0.578125 -0.109375 0.765625 -0.175781 0.921875 -0.3125 C 1.085938 -0.445312 1.1875 -0.628906 1.21875 -0.859375 L 2.09375 -8.34375 L 2.203125 -8.34375 L 5.46875 -1.296875 L 8.65625 -8.34375 L 8.765625 -8.34375 L 9.671875 -0.859375 C 9.703125 -0.546875 9.859375 -0.328125 10.140625 -0.203125 C 10.253906 -0.140625 10.378906 -0.109375 10.515625 -0.109375 Z M 10.515625 -0.109375 "/></g></g></g><g fill="#000000" fill-opacity="1"><g transform="translate(161.690294, 103.869706)"><g><path d="M 0.859375 -0.109375 C 1.054688 -0.109375 1.226562 -0.179688 1.375 -0.328125 C 1.519531 -0.472656 1.59375 -0.648438 1.59375 -0.859375 L 1.59375 -7.34375 C 1.59375 -7.539062 1.519531 -7.707031 1.375 -7.84375 C 1.226562 -7.988281 1.054688 -8.0625 0.859375 -8.0625 L 0.703125 -8.0625 L 0.703125 -8.1875 L 3.265625 -8.1875 L 3.265625 -8.0625 L 3.109375 -8.0625 C 2.910156 -8.0625 2.738281 -7.988281 2.59375 -7.84375 C 2.445312 -7.707031 2.367188 -7.539062 2.359375 -7.34375 L 2.359375 -0.859375 C 2.359375 -0.648438 2.429688 -0.472656 2.578125 -0.328125 C 2.734375 -0.179688 2.910156 -0.109375 3.109375 -0.109375 L 3.265625 -0.109375 L 3.265625 0 L 0.703125 0 L 0.703125 -0.109375 Z M 0.859375 -0.109375 "/></g></g></g><g fill="#000000" fill-opacity="1"><g transform="translate(169.14474, 103.869706)"><g><path d="M 3.109375 -0.109375 L 3.265625 -0.109375 L 3.265625 0 L 0.703125 0 L 0.703125 -0.109375 L 0.859375 -0.109375 C 1.054688 -0.109375 1.226562 -0.179688 1.375 -0.328125 C 1.519531 -0.472656 1.59375 -0.648438 1.59375 -0.859375 L 1.59375 -7.34375 C 1.59375 -7.539062 1.519531 -7.707031 1.375 -7.84375 C 1.226562 -7.988281 1.054688 -8.0625 0.859375 -8.0625 L 0.703125 -8.0625 L 0.703125 -8.1875 L 3.265625 -8.1875 L 3.265625 -8.0625 L 3.109375 -8.0625 C 2.910156 -8.0625 2.738281 -7.988281 2.59375 -7.84375 C 2.445312 -7.707031 2.367188 -7.539062 2.359375 -7.34375 L 2.359375 -0.859375 C 2.359375 -0.648438 2.429688 -0.472656 2.578125 -0.328125 C 2.734375 -0.179688 2.910156 -0.109375 3.109375 -0.109375 Z M 7.8125 0 L 7.3125 0 C 6.507812 0 5.921875 -0.222656 5.546875 -0.671875 L 2.734375 -4.0625 L 5.5 -7.53125 C 5.5625 -7.601562 5.59375 -7.671875 5.59375 -7.734375 C 5.59375 -7.796875 5.578125 -7.851562 5.546875 -7.90625 C 5.484375 -8.019531 5.375 -8.078125 5.21875 -8.078125 L 5.09375 -8.078125 L 5.09375 -8.1875 L 7.5625 -8.1875 L 7.5625 -8.078125 L 7.515625 -8.078125 C 7.003906 -8.078125 6.582031 -7.894531 6.25 -7.53125 L 3.5 -4.34375 L 6.703125 -0.59375 C 7.015625 -0.28125 7.382812 -0.117188 7.8125 -0.109375 Z M 7.8125 0 "/></g></g></g><g fill="#000000" fill-opacity="1"><g transform="translate(180.325726, 103.869706)"><g><path d="M 8.375 -0.109375 L 8.46875 -0.109375 L 8.46875 0 L 5.84375 0 L 5.84375 -0.109375 L 5.9375 -0.109375 C 6.101562 -0.109375 6.226562 -0.160156 6.3125 -0.265625 C 6.394531 -0.378906 6.4375 -0.484375 6.4375 -0.578125 C 6.4375 -0.671875 6.421875 -0.765625 6.390625 -0.859375 L 5.640625 -2.84375 L 2.484375 -2.84375 L 1.703125 -0.84375 C 1.671875 -0.75 1.65625 -0.65625 1.65625 -0.5625 C 1.65625 -0.476562 1.691406 -0.378906 1.765625 -0.265625 C 1.847656 -0.160156 1.972656 -0.109375 2.140625 -0.109375 L 2.25 -0.109375 L 2.25 0 L -0.09375 0 L -0.09375 -0.109375 L 0 -0.109375 C 0.195312 -0.109375 0.390625 -0.171875 0.578125 -0.296875 C 0.765625 -0.421875 0.914062 -0.609375 1.03125 -0.859375 L 3.671875 -7.140625 C 3.960938 -7.773438 4.109375 -8.175781 4.109375 -8.34375 L 4.21875 -8.34375 L 7.34375 -0.859375 C 7.445312 -0.609375 7.59375 -0.421875 7.78125 -0.296875 C 7.96875 -0.171875 8.164062 -0.109375 8.375 -0.109375 Z M 2.625 -3.1875 L 5.5 -3.1875 L 4.09375 -6.9375 Z M 2.625 -3.1875 "/></g></g></g><g clip-path="url(#id2)"><g clip-path="url(#id3)"><g clip-path="url(#id4)"><g clip-path="url(#id5)"><path fill="#000000" d="M 280.980469 43.800781 C 281.105469 43.796875 281.175781 43.878906 281.234375 43.972656 C 281.292969 44.0625 281.34375 44.160156 281.386719 44.257812 C 281.5 44.53125 281.617188 44.804688 281.707031 45.085938 C 281.921875 45.75 282.109375 46.425781 282.3125 47.09375 C 282.609375 48.066406 282.773438 49.0625 282.949219 50.058594 C 283.09375 50.855469 283.117188 51.664062 283.132812 52.476562 C 283.144531 52.929688 283.117188 53.378906 283.078125 53.828125 C 283.074219 53.882812 283.035156 53.941406 283.121094 54.003906 C 283.195312 53.867188 283.292969 53.742188 283.34375 53.601562 C 283.507812 53.164062 283.664062 52.726562 283.804688 52.28125 C 283.960938 51.792969 284.089844 51.292969 284.238281 50.804688 C 284.402344 50.269531 284.578125 49.734375 284.75 49.203125 C 284.847656 48.890625 284.941406 48.578125 285.0625 48.277344 C 285.160156 48.03125 285.253906 47.785156 285.339844 47.535156 C 285.476562 47.136719 285.597656 46.734375 285.792969 46.359375 C 285.90625 46.136719 285.988281 45.902344 286.085938 45.671875 C 286.285156 45.214844 286.480469 44.757812 286.683594 44.304688 C 286.753906 44.140625 286.859375 44.007812 287 43.902344 C 287.050781 43.867188 287.105469 43.839844 287.164062 43.816406 C 287.230469 43.789062 287.347656 43.835938 287.363281 43.898438 C 287.433594 44.183594 287.507812 44.464844 287.46875 44.769531 C 287.421875 45.109375 287.394531 45.449219 287.367188 45.792969 C 287.34375 46.054688 287.339844 46.320312 287.3125 46.582031 C 287.257812 47.09375 287.179688 47.601562 287.15625 48.117188 C 287.140625 48.425781 287.09375 48.734375 287.054688 49.042969 C 287.003906 49.429688 286.945312 49.8125 286.878906 50.199219 C 286.8125 50.613281 286.765625 51.03125 286.664062 51.4375 C 286.378906 52.566406 286.03125 53.679688 285.554688 54.753906 C 285.773438 54.582031 285.933594 54.375 286.117188 54.183594 C 286.523438 53.75 286.886719 53.285156 287.199219 52.78125 C 287.484375 52.335938 287.769531 51.890625 288.054688 51.445312 C 288.105469 51.367188 288.1875 51.308594 288.222656 51.226562 C 288.5 50.628906 288.875 50.089844 289.21875 49.53125 C 290.066406 48.148438 290.933594 46.777344 291.796875 45.402344 C 291.992188 45.09375 292.117188 44.761719 292.21875 44.417969 C 292.257812 44.296875 292.265625 44.175781 292.25 44.050781 C 292.207031 43.757812 292.179688 43.460938 292.121094 43.171875 C 292.074219 42.921875 292.085938 42.679688 292.113281 42.429688 C 292.175781 41.871094 292.335938 41.332031 292.503906 40.796875 C 292.71875 40.101562 292.976562 39.414062 293.199219 38.71875 C 293.269531 38.492188 293.402344 38.300781 293.480469 38.078125 C 293.703125 37.449219 293.949219 36.828125 294.1875 36.203125 C 294.199219 36.175781 294.214844 36.148438 294.226562 36.121094 C 294.519531 35.550781 294.722656 34.941406 294.933594 34.339844 C 295.175781 33.652344 295.410156 32.960938 295.671875 32.277344 C 295.878906 31.742188 296.050781 31.191406 296.21875 30.640625 C 296.558594 29.542969 296.964844 28.464844 297.347656 27.382812 C 297.464844 27.050781 297.671875 26.777344 297.832031 26.476562 C 297.890625 26.378906 297.984375 26.324219 298.078125 26.265625 C 298.132812 26.226562 298.191406 26.222656 298.253906 26.242188 C 298.316406 26.265625 298.359375 26.308594 298.382812 26.371094 C 298.40625 26.445312 298.429688 26.519531 298.445312 26.59375 C 298.582031 27.140625 298.570312 27.703125 298.585938 28.261719 C 298.597656 28.726562 298.566406 29.195312 298.546875 29.660156 C 298.503906 30.753906 298.375 31.835938 298.117188 32.894531 C 298.054688 33.152344 297.996094 33.410156 297.933594 33.667969 C 297.699219 34.601562 297.480469 35.539062 297.121094 36.4375 C 296.796875 37.246094 296.5625 38.089844 296.148438 38.859375 C 296.128906 38.902344 296.125 38.949219 296.105469 38.992188 C 295.917969 39.503906 295.671875 39.992188 295.417969 40.472656 C 295.105469 41.0625 294.722656 41.617188 294.367188 42.191406 C 294.320312 42.269531 294.273438 42.355469 294.203125 42.417969 C 293.648438 42.945312 293.246094 43.601562 292.726562 44.160156 C 292.667969 44.226562 292.636719 44.324219 292.601562 44.40625 C 292.429688 44.792969 292.277344 45.183594 292.050781 45.539062 C 291.863281 45.828125 291.6875 46.125 291.511719 46.417969 C 291.414062 46.578125 291.308594 46.738281 291.238281 46.910156 C 291.164062 47.082031 291.078125 47.246094 290.976562 47.402344 C 290.359375 48.402344 289.746094 49.398438 289.128906 50.390625 C 288.804688 50.910156 288.46875 51.417969 288.140625 51.929688 C 288.070312 52.042969 287.96875 52.144531 287.976562 52.296875 C 288.085938 52.265625 288.109375 52.164062 288.175781 52.097656 C 288.730469 51.554688 289.277344 51 289.84375 50.46875 C 290.230469 50.113281 290.628906 49.753906 291.082031 49.480469 C 291.882812 48.996094 292.644531 48.457031 293.449219 47.976562 C 294.035156 47.625 294.589844 47.222656 295.160156 46.839844 C 295.238281 46.789062 295.316406 46.738281 295.394531 46.6875 C 296.640625 45.945312 297.855469 45.15625 299.074219 44.371094 C 299.453125 44.125 299.835938 43.886719 300.226562 43.660156 C 300.902344 43.269531 301.582031 42.890625 302.261719 42.503906 C 302.679688 42.265625 303.09375 42.015625 303.519531 41.792969 C 303.921875 41.585938 304.335938 41.40625 304.804688 41.441406 C 304.859375 41.640625 304.855469 41.640625 304.792969 41.75 C 304.566406 42.167969 304.257812 42.511719 303.921875 42.84375 C 303.601562 43.164062 303.238281 43.433594 302.90625 43.738281 C 302.410156 44.1875 301.90625 44.628906 301.371094 45.03125 C 301.011719 45.304688 300.644531 45.566406 300.273438 45.828125 C 299.917969 46.078125 299.558594 46.328125 299.195312 46.570312 C 298.675781 46.914062 298.144531 47.238281 297.632812 47.59375 C 296.894531 48.117188 296.109375 48.5625 295.339844 49.039062 C 295.035156 49.226562 294.726562 49.410156 294.425781 49.605469 C 294.269531 49.707031 294.109375 49.800781 293.945312 49.894531 C 293.660156 50.054688 293.375 50.207031 293.089844 50.375 C 292.402344 50.769531 291.71875 51.171875 291.03125 51.574219 C 290.910156 51.644531 290.785156 51.710938 290.660156 51.769531 C 290.15625 52.019531 289.648438 52.257812 289.152344 52.519531 C 288.859375 52.675781 288.558594 52.808594 288.242188 52.878906 C 287.867188 52.960938 287.566406 53.195312 287.21875 53.332031 C 287.15625 53.359375 287.105469 53.433594 287.058594 53.496094 C 286.574219 54.144531 286.03125 54.746094 285.453125 55.3125 C 285.359375 55.398438 285.277344 55.492188 285.207031 55.59375 C 285.054688 55.828125 284.886719 56.054688 284.746094 56.300781 C 284.335938 57.019531 283.871094 57.703125 283.425781 58.402344 C 283.386719 58.46875 283.34375 58.535156 283.296875 58.597656 C 282.894531 59.09375 282.476562 59.574219 282.046875 60.042969 C 281.878906 60.226562 281.710938 60.414062 281.515625 60.566406 C 280.875 61.066406 280.195312 61.5 279.429688 61.792969 C 279.242188 61.867188 279.046875 61.945312 278.914062 62.105469 C 278.753906 62.300781 278.550781 62.4375 278.347656 62.582031 C 277.515625 63.1875 276.691406 63.796875 275.863281 64.402344 C 275.8125 64.441406 275.757812 64.480469 275.777344 64.566406 C 276.097656 64.503906 276.414062 64.429688 276.734375 64.386719 C 277.316406 64.308594 277.90625 64.25 278.492188 64.179688 C 279.265625 64.082031 280.039062 64.011719 280.820312 64.003906 C 281.394531 64 281.96875 64.066406 282.542969 64.074219 C 283.070312 64.085938 283.601562 64.085938 284.128906 64.066406 C 284.671875 64.042969 285.214844 64.003906 285.753906 63.949219 C 286.730469 63.851562 287.703125 63.742188 288.679688 63.628906 C 289.082031 63.582031 289.480469 63.511719 289.878906 63.460938 C 290.421875 63.394531 290.960938 63.339844 291.503906 63.28125 C 291.980469 63.226562 292.460938 63.160156 292.9375 63.117188 C 293.46875 63.066406 293.996094 63.082031 294.511719 63.222656 C 294.601562 63.246094 294.683594 63.28125 294.761719 63.332031 C 294.789062 63.351562 294.8125 63.425781 294.796875 63.453125 C 294.746094 63.546875 294.6875 63.640625 294.609375 63.714844 C 294.355469 63.953125 294.066406 64.136719 293.746094 64.273438 C 293.402344 64.417969 293.054688 64.554688 292.699219 64.675781 C 291.933594 64.9375 291.175781 65.230469 290.375 65.359375 C 289.800781 65.570312 289.191406 65.636719 288.59375 65.726562 C 287.734375 65.851562 286.871094 65.988281 286 66.03125 C 285.394531 66.0625 284.789062 66.121094 284.183594 66.160156 C 283.921875 66.175781 283.65625 66.167969 283.390625 66.164062 C 282.257812 66.140625 281.132812 65.980469 280.007812 65.828125 C 279.195312 65.71875 278.382812 65.570312 277.570312 65.457031 C 276.878906 65.355469 276.183594 65.277344 275.488281 65.199219 C 275.304688 65.175781 275.117188 65.1875 274.929688 65.171875 C 274.800781 65.164062 274.683594 65.199219 274.578125 65.273438 C 274.386719 65.402344 274.183594 65.519531 273.992188 65.652344 C 273.070312 66.300781 272.085938 66.839844 271.070312 67.320312 C 270.5625 67.558594 270.054688 67.792969 269.578125 68.097656 C 269.539062 68.125 269.496094 68.136719 269.449219 68.136719 C 269.402344 68.132812 269.363281 68.109375 269.332031 68.074219 C 269.308594 68.035156 269.304688 67.992188 269.320312 67.945312 C 269.34375 67.890625 269.382812 67.84375 269.4375 67.808594 C 269.605469 67.699219 269.78125 67.597656 269.960938 67.507812 C 270.449219 67.269531 270.953125 67.054688 271.433594 66.800781 C 272.484375 66.253906 273.492188 65.636719 274.476562 64.976562 C 275.410156 64.351562 276.332031 63.714844 277.238281 63.050781 C 277.675781 62.730469 278.105469 62.390625 278.542969 62.066406 C 278.75 61.917969 278.898438 61.722656 278.988281 61.484375 C 279.03125 61.367188 279.078125 61.253906 279.121094 61.136719 C 279.230469 60.828125 279.320312 60.511719 279.460938 60.21875 C 279.675781 59.769531 279.925781 59.339844 280.167969 58.902344 C 280.242188 58.765625 280.324219 58.632812 280.414062 58.503906 C 280.621094 58.21875 280.722656 57.898438 280.761719 57.554688 C 280.835938 56.9375 280.9375 56.324219 280.886719 55.695312 C 280.84375 55.226562 280.832031 54.761719 280.851562 54.292969 C 280.890625 53.46875 280.816406 52.644531 280.773438 51.824219 C 280.714844 50.75 280.648438 49.679688 280.613281 48.605469 C 280.589844 47.90625 280.605469 47.207031 280.613281 46.507812 C 280.621094 46.007812 280.636719 45.511719 280.667969 45.015625 C 280.691406 44.691406 280.75 44.367188 280.796875 44.042969 C 280.816406 43.894531 280.894531 43.804688 280.980469 43.800781 Z M 280.980469 43.800781 " fill-opacity="1" fill-rule="nonzero"/></g></g></g></g></svg>